<mxfile modified="2023-07-22T14:07:23.559Z" host="app.diagrams.net" agent="Mozilla/5.0 (Windows NT 10.0; Win64; x64) AppleWebKit/537.36 (KHTML, like Gecko) Chrome/114.0.0.0 Safari/537.36" etag="4uCtDjsm-IKJ4-nALb73" version="21.6.3" type="github">
  <diagram id="Ht1M8jgEwFfnCIfOTk4-" name="Page-1">
    <mxGraphModel dx="1762" dy="769" grid="1" gridSize="10" guides="1" tooltips="1" connect="1" arrows="1" fold="1" page="1" pageScale="1" pageWidth="1169" pageHeight="827" math="0" shadow="0">
      <root>
        <mxCell id="0" />
        <mxCell id="1" parent="0" />
        <mxCell id="-QjtrjUzRDEMRZ5MF8oH-9" value="1" style="rounded=1;whiteSpace=wrap;html=1;fillColor=#007CBD;strokeColor=none;fontColor=#FFFFFF;fontStyle=1;fontSize=22;" parent="1" vertex="1">
          <mxGeometry x="590" y="222" width="40" height="38" as="geometry" />
        </mxCell>
        <mxCell id="-QjtrjUzRDEMRZ5MF8oH-47" value="IaaS 로 구축한 IoT DB서버" style="text;html=1;resizable=0;points=[];autosize=1;align=left;verticalAlign=top;spacingTop=-4;fontSize=30;fontStyle=1" parent="1" vertex="1">
          <mxGeometry x="56.5" y="64.5" width="390" height="40" as="geometry" />
        </mxCell>
        <mxCell id="-QjtrjUzRDEMRZ5MF8oH-48" value="Project 1, Project 2로 &#39;Route 53&#39;서비스로 대여한 도메인을 가진 web서버로부터 현재 OS 상황, DB구조, Web 페이지를 확인할 수 있도록 설계" style="text;html=1;resizable=0;points=[];autosize=1;align=left;verticalAlign=top;spacingTop=-4;fontSize=16;" parent="1" vertex="1">
          <mxGeometry x="56.5" y="114.5" width="1020" height="30" as="geometry" />
        </mxCell>
        <mxCell id="SCVMTBWpLvtzJIhz15lM-1" value="" style="line;strokeWidth=2;html=1;fontSize=14;" parent="1" vertex="1">
          <mxGeometry x="52.5" y="139.5" width="1060" height="10" as="geometry" />
        </mxCell>
        <mxCell id="7OVz4w7n9kzEPWy-4BBC-3" value="" style="rounded=0;whiteSpace=wrap;html=1;fillColor=#EAEDED;fontSize=22;fontColor=#FFFFFF;strokeColor=none;labelBackgroundColor=none;" parent="1" vertex="1">
          <mxGeometry x="1130.5" y="144.5" width="539" height="1085.5" as="geometry" />
        </mxCell>
        <mxCell id="7OVz4w7n9kzEPWy-4BBC-4" value="1" style="rounded=1;whiteSpace=wrap;html=1;fillColor=#007CBD;strokeColor=none;fontColor=#FFFFFF;fontStyle=1;fontSize=22;labelBackgroundColor=none;" parent="1" vertex="1">
          <mxGeometry x="1169" y="169" width="40" height="38" as="geometry" />
        </mxCell>
        <mxCell id="7OVz4w7n9kzEPWy-4BBC-5" value="2" style="rounded=1;whiteSpace=wrap;html=1;fillColor=#007CBD;strokeColor=none;fontColor=#FFFFFF;fontStyle=1;fontSize=22;labelBackgroundColor=none;" parent="1" vertex="1">
          <mxGeometry x="1167.5" y="222" width="40" height="38" as="geometry" />
        </mxCell>
        <mxCell id="7OVz4w7n9kzEPWy-4BBC-6" value="3" style="rounded=1;whiteSpace=wrap;html=1;fillColor=#007CBD;strokeColor=none;fontColor=#FFFFFF;fontStyle=1;fontSize=22;labelBackgroundColor=none;" parent="1" vertex="1">
          <mxGeometry x="1167.5" y="278" width="40" height="38" as="geometry" />
        </mxCell>
        <mxCell id="7OVz4w7n9kzEPWy-4BBC-7" value="4" style="rounded=1;whiteSpace=wrap;html=1;fillColor=#007CBD;strokeColor=none;fontColor=#FFFFFF;fontStyle=1;fontSize=22;labelBackgroundColor=none;" parent="1" vertex="1">
          <mxGeometry x="1167.5" y="340" width="40" height="38" as="geometry" />
        </mxCell>
        <mxCell id="7OVz4w7n9kzEPWy-4BBC-8" value="5" style="rounded=1;whiteSpace=wrap;html=1;fillColor=#007CBD;strokeColor=none;fontColor=#FFFFFF;fontStyle=1;fontSize=22;labelBackgroundColor=none;" parent="1" vertex="1">
          <mxGeometry x="1167.5" y="639" width="40" height="38" as="geometry" />
        </mxCell>
        <mxCell id="7OVz4w7n9kzEPWy-4BBC-9" value="6" style="rounded=1;whiteSpace=wrap;html=1;fillColor=#007CBD;strokeColor=none;fontColor=#FFFFFF;fontStyle=1;fontSize=22;labelBackgroundColor=none;" parent="1" vertex="1">
          <mxGeometry x="1170" y="762" width="40" height="38" as="geometry" />
        </mxCell>
        <mxCell id="7OVz4w7n9kzEPWy-4BBC-10" value="7" style="rounded=1;whiteSpace=wrap;html=1;fillColor=#007CBD;strokeColor=none;fontColor=#FFFFFF;fontStyle=1;fontSize=22;labelBackgroundColor=none;" parent="1" vertex="1">
          <mxGeometry x="1170" y="800" width="40" height="38" as="geometry" />
        </mxCell>
        <mxCell id="7OVz4w7n9kzEPWy-4BBC-11" value="8" style="rounded=1;whiteSpace=wrap;html=1;fillColor=#007CBD;strokeColor=none;fontColor=#FFFFFF;fontStyle=1;fontSize=22;labelBackgroundColor=none;" parent="1" vertex="1">
          <mxGeometry x="1170" y="885" width="40" height="38" as="geometry" />
        </mxCell>
        <mxCell id="7OVz4w7n9kzEPWy-4BBC-12" value="9" style="rounded=1;whiteSpace=wrap;html=1;fillColor=#007CBD;strokeColor=none;fontColor=#FFFFFF;fontStyle=1;fontSize=22;labelBackgroundColor=none;" parent="1" vertex="1">
          <mxGeometry x="1168" y="1005" width="40" height="38" as="geometry" />
        </mxCell>
        <mxCell id="7OVz4w7n9kzEPWy-4BBC-13" value="&lt;span&gt;아두이노로부터 HTTP 프로토콜 데이터 전송 (temp, humi)&lt;/span&gt;" style="text;html=1;align=left;verticalAlign=top;spacingTop=-4;fontSize=14;labelBackgroundColor=none;whiteSpace=wrap;" parent="1" vertex="1">
          <mxGeometry x="1221.5" y="649.25" width="449" height="118" as="geometry" />
        </mxCell>
        <mxCell id="7OVz4w7n9kzEPWy-4BBC-14" value="php코드로부터 dbm ec2에 있는 local db로 데이터 전송" style="text;html=1;align=left;verticalAlign=top;spacingTop=-4;fontSize=14;labelBackgroundColor=none;whiteSpace=wrap;" parent="1" vertex="1">
          <mxGeometry x="1220.5" y="772.25" width="450" height="115" as="geometry" />
        </mxCell>
        <mxCell id="7OVz4w7n9kzEPWy-4BBC-22" value="10" style="rounded=1;whiteSpace=wrap;html=1;fillColor=#007CBD;strokeColor=none;fontColor=#FFFFFF;fontStyle=1;fontSize=22;labelBackgroundColor=none;" parent="1" vertex="1">
          <mxGeometry x="1169" y="1130.5" width="40" height="38" as="geometry" />
        </mxCell>
        <mxCell id="RZCS8msr2GIvvRPchReN-28" value="&lt;div style=&quot;text-align: center;&quot;&gt;&lt;span style=&quot;background-color: initial;&quot;&gt;&lt;font color=&quot;#232f3e&quot;&gt;DHT 11&lt;/font&gt;&lt;/span&gt;&lt;/div&gt;" style="text;whiteSpace=wrap;html=1;" parent="1" vertex="1">
          <mxGeometry x="878.75" y="162" width="51.25" height="27" as="geometry" />
        </mxCell>
        <mxCell id="RZCS8msr2GIvvRPchReN-135" value="Web 서버를 Proxy instance로 설정하여 dbm, mgt, was로 부터 받아온 데이터로 db상태, 웹 구조, 모니터링 상황 확인" style="text;html=1;align=left;verticalAlign=top;spacingTop=-4;fontSize=14;labelBackgroundColor=none;whiteSpace=wrap;" parent="1" vertex="1">
          <mxGeometry x="1220.5" y="886.75" width="450" height="115" as="geometry" />
        </mxCell>
        <mxCell id="RZCS8msr2GIvvRPchReN-138" value="" style="shape=image;html=1;verticalAlign=top;verticalLabelPosition=bottom;labelBackgroundColor=#ffffff;imageAspect=0;aspect=fixed;image=https://cdn0.iconfinder.com/data/icons/software-engineering-and-video-gaming/512/87_notepad_report_card_result_presentation-128.png" parent="1" vertex="1">
          <mxGeometry x="81.5" y="160" width="49" height="49" as="geometry" />
        </mxCell>
        <mxCell id="RZCS8msr2GIvvRPchReN-139" value="&lt;div style=&quot;text-align: center;&quot;&gt;&lt;font color=&quot;#232f3e&quot;&gt;regarding to Web, Was, Web EC2&lt;/font&gt;&lt;/div&gt;" style="text;whiteSpace=wrap;html=1;" parent="1" vertex="1">
          <mxGeometry x="130.5" y="169.5" width="219.5" height="30" as="geometry" />
        </mxCell>
        <mxCell id="RZCS8msr2GIvvRPchReN-140" value="&#39;web&#39;의 역할 1 : http 프로토콜로 전달 받은 Temp, Humi data Get&lt;br&gt;&#39;web&#39;의 역할 2 : &#39;proxy 인스턴스&#39; -&amp;gt; dbm, was, mgt 서버 경로 분산으로 보안성을 가미한 시각화&lt;br&gt;&#39;was&#39;의 역할 : Node.js 프레임워크로 웹 구조 시각화&lt;br&gt;&#39;dbm&#39;의 역할 : &#39;web&#39;으로 받은 데이터 저장, 관리&lt;br&gt;&#39;mgt&#39;의 역할 : Grafana로 5개 서버 OS 상태 감시" style="text;html=1;align=left;verticalAlign=top;spacingTop=-4;fontSize=14;labelBackgroundColor=none;whiteSpace=wrap;" parent="1" vertex="1">
          <mxGeometry x="1220.5" y="1007.75" width="450" height="115" as="geometry" />
        </mxCell>
        <mxCell id="RZCS8msr2GIvvRPchReN-143" value="AWS Cloud" style="points=[[0,0],[0.25,0],[0.5,0],[0.75,0],[1,0],[1,0.25],[1,0.5],[1,0.75],[1,1],[0.75,1],[0.5,1],[0.25,1],[0,1],[0,0.75],[0,0.5],[0,0.25]];outlineConnect=0;gradientColor=none;html=1;whiteSpace=wrap;fontSize=12;fontStyle=0;container=1;pointerEvents=0;collapsible=0;recursiveResize=0;shape=mxgraph.aws4.group;grIcon=mxgraph.aws4.group_aws_cloud_alt;strokeColor=#232F3E;fillColor=none;verticalAlign=top;align=left;spacingLeft=30;fontColor=#232F3E;dashed=0;" parent="1" vertex="1">
          <mxGeometry x="110" y="343" width="1000" height="907" as="geometry" />
        </mxCell>
        <mxCell id="RZCS8msr2GIvvRPchReN-144" value="Region" style="points=[[0,0],[0.25,0],[0.5,0],[0.75,0],[1,0],[1,0.25],[1,0.5],[1,0.75],[1,1],[0.75,1],[0.5,1],[0.25,1],[0,1],[0,0.75],[0,0.5],[0,0.25]];outlineConnect=0;gradientColor=none;html=1;whiteSpace=wrap;fontSize=12;fontStyle=0;container=1;pointerEvents=0;collapsible=0;recursiveResize=0;shape=mxgraph.aws4.group;grIcon=mxgraph.aws4.group_region;strokeColor=#147EBA;fillColor=none;verticalAlign=top;align=left;spacingLeft=30;fontColor=#147EBA;dashed=1;" parent="RZCS8msr2GIvvRPchReN-143" vertex="1">
          <mxGeometry x="30" y="110" width="694.5" height="780" as="geometry" />
        </mxCell>
        <mxCell id="RZCS8msr2GIvvRPchReN-195" value="&lt;div style=&quot;text-align: center;&quot;&gt;ap-northeast-2(Seoul)&lt;/div&gt;" style="text;whiteSpace=wrap;html=1;" parent="RZCS8msr2GIvvRPchReN-144" vertex="1">
          <mxGeometry x="80" width="120" height="27" as="geometry" />
        </mxCell>
        <mxCell id="6GPPdsSxO4ECFvlowUeQ-35" style="edgeStyle=orthogonalEdgeStyle;rounded=0;orthogonalLoop=1;jettySize=auto;html=1;" edge="1" parent="RZCS8msr2GIvvRPchReN-144" source="6GPPdsSxO4ECFvlowUeQ-12" target="6GPPdsSxO4ECFvlowUeQ-34">
          <mxGeometry relative="1" as="geometry">
            <Array as="points">
              <mxPoint x="38" y="524" />
            </Array>
          </mxGeometry>
        </mxCell>
        <mxCell id="6GPPdsSxO4ECFvlowUeQ-12" value="" style="sketch=0;outlineConnect=0;fontColor=#232F3E;gradientColor=none;fillColor=#2E27AD;strokeColor=none;dashed=0;verticalLabelPosition=bottom;verticalAlign=top;align=center;html=1;fontSize=12;fontStyle=0;aspect=fixed;pointerEvents=1;shape=mxgraph.aws4.table;" vertex="1" parent="RZCS8msr2GIvvRPchReN-144">
          <mxGeometry x="18.25" y="570" width="39" height="39" as="geometry" />
        </mxCell>
        <mxCell id="6GPPdsSxO4ECFvlowUeQ-21" value="&lt;div style=&quot;text-align: center;&quot;&gt;&lt;font color=&quot;#232f3e&quot;&gt;db table&lt;/font&gt;&lt;/div&gt;" style="text;whiteSpace=wrap;html=1;" vertex="1" parent="RZCS8msr2GIvvRPchReN-144">
          <mxGeometry x="15" y="610" width="45.5" height="27" as="geometry" />
        </mxCell>
        <mxCell id="6GPPdsSxO4ECFvlowUeQ-25" value="" style="sketch=0;outlineConnect=0;fontColor=#232F3E;gradientColor=none;fillColor=#2E27AD;strokeColor=none;dashed=0;verticalLabelPosition=bottom;verticalAlign=top;align=center;html=1;fontSize=12;fontStyle=0;aspect=fixed;pointerEvents=1;shape=mxgraph.aws4.table;" vertex="1" parent="RZCS8msr2GIvvRPchReN-144">
          <mxGeometry x="631" y="226" width="39" height="39" as="geometry" />
        </mxCell>
        <mxCell id="6GPPdsSxO4ECFvlowUeQ-26" value="&lt;div style=&quot;text-align: center;&quot;&gt;&lt;font color=&quot;#232f3e&quot;&gt;db table&lt;/font&gt;&lt;/div&gt;" style="text;whiteSpace=wrap;html=1;" vertex="1" parent="RZCS8msr2GIvvRPchReN-144">
          <mxGeometry x="627.75" y="266" width="45.5" height="27" as="geometry" />
        </mxCell>
        <mxCell id="6GPPdsSxO4ECFvlowUeQ-28" value="" style="sketch=0;outlineConnect=0;fontColor=#232F3E;gradientColor=none;fillColor=#3F8624;strokeColor=none;dashed=0;verticalLabelPosition=bottom;verticalAlign=top;align=center;html=1;fontSize=12;fontStyle=0;aspect=fixed;pointerEvents=1;shape=mxgraph.aws4.iot_core_device_advisor;" vertex="1" parent="RZCS8msr2GIvvRPchReN-144">
          <mxGeometry x="632.23" y="27" width="36.53" height="37" as="geometry" />
        </mxCell>
        <mxCell id="6GPPdsSxO4ECFvlowUeQ-88" style="edgeStyle=orthogonalEdgeStyle;rounded=0;orthogonalLoop=1;jettySize=auto;html=1;exitX=0.5;exitY=1;exitDx=0;exitDy=0;" edge="1" parent="RZCS8msr2GIvvRPchReN-144" source="6GPPdsSxO4ECFvlowUeQ-29" target="6GPPdsSxO4ECFvlowUeQ-87">
          <mxGeometry relative="1" as="geometry" />
        </mxCell>
        <mxCell id="6GPPdsSxO4ECFvlowUeQ-29" value="&lt;div style=&quot;text-align: center;&quot;&gt;&lt;font color=&quot;#232f3e&quot;&gt;device advisor&lt;/font&gt;&lt;/div&gt;" style="text;whiteSpace=wrap;html=1;" vertex="1" parent="RZCS8msr2GIvvRPchReN-144">
          <mxGeometry x="627.74" y="60" width="45.5" height="38" as="geometry" />
        </mxCell>
        <mxCell id="6GPPdsSxO4ECFvlowUeQ-73" style="edgeStyle=orthogonalEdgeStyle;rounded=0;orthogonalLoop=1;jettySize=auto;html=1;" edge="1" parent="RZCS8msr2GIvvRPchReN-144" source="6GPPdsSxO4ECFvlowUeQ-34" target="6GPPdsSxO4ECFvlowUeQ-51">
          <mxGeometry relative="1" as="geometry">
            <Array as="points">
              <mxPoint x="91" y="448" />
            </Array>
          </mxGeometry>
        </mxCell>
        <mxCell id="6GPPdsSxO4ECFvlowUeQ-34" value="" style="sketch=0;outlineConnect=0;fontColor=#232F3E;gradientColor=none;fillColor=#4D27AA;strokeColor=none;dashed=0;verticalLabelPosition=bottom;verticalAlign=top;align=center;html=1;fontSize=12;fontStyle=0;aspect=fixed;pointerEvents=1;shape=mxgraph.aws4.endpoints;" vertex="1" parent="RZCS8msr2GIvvRPchReN-144">
          <mxGeometry x="77" y="510" width="27" height="27" as="geometry" />
        </mxCell>
        <mxCell id="RZCS8msr2GIvvRPchReN-150" value="VPC" style="points=[[0,0],[0.25,0],[0.5,0],[0.75,0],[1,0],[1,0.25],[1,0.5],[1,0.75],[1,1],[0.75,1],[0.5,1],[0.25,1],[0,1],[0,0.75],[0,0.5],[0,0.25]];outlineConnect=0;gradientColor=none;html=1;whiteSpace=wrap;fontSize=12;fontStyle=0;container=1;pointerEvents=0;collapsible=0;recursiveResize=0;shape=mxgraph.aws4.group;grIcon=mxgraph.aws4.group_vpc;strokeColor=#248814;fillColor=none;verticalAlign=top;align=left;spacingLeft=30;fontColor=#AAB7B8;dashed=0;" parent="RZCS8msr2GIvvRPchReN-144" vertex="1">
          <mxGeometry x="91.22" y="110" width="514.5" height="645" as="geometry" />
        </mxCell>
        <mxCell id="RZCS8msr2GIvvRPchReN-146" value="Availability Zone" style="fillColor=none;strokeColor=#147EBA;dashed=1;verticalAlign=top;fontStyle=0;fontColor=#147EBA;whiteSpace=wrap;html=1;" parent="RZCS8msr2GIvvRPchReN-150" vertex="1">
          <mxGeometry x="12.510000000000005" y="-30" width="207.5" height="675" as="geometry" />
        </mxCell>
        <mxCell id="RZCS8msr2GIvvRPchReN-147" value="Public subnet" style="points=[[0,0],[0.25,0],[0.5,0],[0.75,0],[1,0],[1,0.25],[1,0.5],[1,0.75],[1,1],[0.75,1],[0.5,1],[0.25,1],[0,1],[0,0.75],[0,0.5],[0,0.25]];outlineConnect=0;gradientColor=none;html=1;whiteSpace=wrap;fontSize=12;fontStyle=0;container=1;pointerEvents=0;collapsible=0;recursiveResize=0;shape=mxgraph.aws4.group;grIcon=mxgraph.aws4.group_security_group;grStroke=0;strokeColor=#248814;fillColor=#E9F3E6;verticalAlign=top;align=left;spacingLeft=30;fontColor=#248814;dashed=0;" parent="RZCS8msr2GIvvRPchReN-150" vertex="1">
          <mxGeometry x="18.79" y="58" width="194.93" height="130" as="geometry" />
        </mxCell>
        <mxCell id="RZCS8msr2GIvvRPchReN-151" value="" style="sketch=0;outlineConnect=0;fontColor=#232F3E;gradientColor=none;fillColor=#4D27AA;strokeColor=none;dashed=0;verticalLabelPosition=bottom;verticalAlign=top;align=center;html=1;fontSize=12;fontStyle=0;aspect=fixed;pointerEvents=1;shape=mxgraph.aws4.nat_gateway;" parent="RZCS8msr2GIvvRPchReN-147" vertex="1">
          <mxGeometry x="76.46999999999998" y="44" width="42" height="42" as="geometry" />
        </mxCell>
        <mxCell id="RZCS8msr2GIvvRPchReN-152" value="Private subnet" style="points=[[0,0],[0.25,0],[0.5,0],[0.75,0],[1,0],[1,0.25],[1,0.5],[1,0.75],[1,1],[0.75,1],[0.5,1],[0.25,1],[0,1],[0,0.75],[0,0.5],[0,0.25]];outlineConnect=0;gradientColor=none;html=1;whiteSpace=wrap;fontSize=12;fontStyle=0;container=1;pointerEvents=0;collapsible=0;recursiveResize=0;shape=mxgraph.aws4.group;grIcon=mxgraph.aws4.group_security_group;grStroke=0;strokeColor=#147EBA;fillColor=#E6F2F8;verticalAlign=top;align=left;spacingLeft=30;fontColor=#147EBA;dashed=0;" parent="RZCS8msr2GIvvRPchReN-150" vertex="1">
          <mxGeometry x="21.72" y="203" width="192" height="130" as="geometry" />
        </mxCell>
        <mxCell id="RZCS8msr2GIvvRPchReN-175" value="" style="sketch=0;outlineConnect=0;fontColor=#232F3E;gradientColor=none;fillColor=#D45B07;strokeColor=none;dashed=0;verticalLabelPosition=bottom;verticalAlign=top;align=center;html=1;fontSize=12;fontStyle=0;aspect=fixed;pointerEvents=1;shape=mxgraph.aws4.instance2;" parent="RZCS8msr2GIvvRPchReN-152" vertex="1">
          <mxGeometry x="70.27999999999997" y="45" width="48" height="48" as="geometry" />
        </mxCell>
        <mxCell id="6GPPdsSxO4ECFvlowUeQ-4" value="&lt;div style=&quot;text-align: center;&quot;&gt;web-1&lt;br&gt;&lt;/div&gt;" style="text;whiteSpace=wrap;html=1;" vertex="1" parent="RZCS8msr2GIvvRPchReN-152">
          <mxGeometry x="76.53" y="91" width="35.5" height="27" as="geometry" />
        </mxCell>
        <mxCell id="RZCS8msr2GIvvRPchReN-153" value="Private subnet" style="points=[[0,0],[0.25,0],[0.5,0],[0.75,0],[1,0],[1,0.25],[1,0.5],[1,0.75],[1,1],[0.75,1],[0.5,1],[0.25,1],[0,1],[0,0.75],[0,0.5],[0,0.25]];outlineConnect=0;gradientColor=none;html=1;whiteSpace=wrap;fontSize=12;fontStyle=0;container=1;pointerEvents=0;collapsible=0;recursiveResize=0;shape=mxgraph.aws4.group;grIcon=mxgraph.aws4.group_security_group;grStroke=0;strokeColor=#147EBA;fillColor=#E6F2F8;verticalAlign=top;align=left;spacingLeft=30;fontColor=#147EBA;dashed=0;" parent="RZCS8msr2GIvvRPchReN-150" vertex="1">
          <mxGeometry x="20.25999999999999" y="343" width="192" height="130" as="geometry" />
        </mxCell>
        <mxCell id="RZCS8msr2GIvvRPchReN-176" value="" style="sketch=0;outlineConnect=0;fontColor=#232F3E;gradientColor=none;fillColor=#D45B07;strokeColor=none;dashed=0;verticalLabelPosition=bottom;verticalAlign=top;align=center;html=1;fontSize=12;fontStyle=0;aspect=fixed;pointerEvents=1;shape=mxgraph.aws4.instance2;" parent="RZCS8msr2GIvvRPchReN-153" vertex="1">
          <mxGeometry x="73.46000000000004" y="47" width="48" height="48" as="geometry" />
        </mxCell>
        <mxCell id="6GPPdsSxO4ECFvlowUeQ-9" value="&lt;div style=&quot;text-align: center;&quot;&gt;was-1&lt;/div&gt;" style="text;whiteSpace=wrap;html=1;" vertex="1" parent="RZCS8msr2GIvvRPchReN-153">
          <mxGeometry x="80.08" y="95" width="35.92" height="27" as="geometry" />
        </mxCell>
        <mxCell id="RZCS8msr2GIvvRPchReN-154" value="Private subnet" style="points=[[0,0],[0.25,0],[0.5,0],[0.75,0],[1,0],[1,0.25],[1,0.5],[1,0.75],[1,1],[0.75,1],[0.5,1],[0.25,1],[0,1],[0,0.75],[0,0.5],[0,0.25]];outlineConnect=0;gradientColor=none;html=1;whiteSpace=wrap;fontSize=12;fontStyle=0;container=1;pointerEvents=0;collapsible=0;recursiveResize=0;shape=mxgraph.aws4.group;grIcon=mxgraph.aws4.group_security_group;grStroke=0;strokeColor=#147EBA;fillColor=#E6F2F8;verticalAlign=top;align=left;spacingLeft=30;fontColor=#147EBA;dashed=0;" parent="RZCS8msr2GIvvRPchReN-150" vertex="1">
          <mxGeometry x="20.25999999999999" y="483" width="192" height="130" as="geometry" />
        </mxCell>
        <mxCell id="RZCS8msr2GIvvRPchReN-177" value="" style="sketch=0;outlineConnect=0;fontColor=#232F3E;gradientColor=none;fillColor=#D45B07;strokeColor=none;dashed=0;verticalLabelPosition=bottom;verticalAlign=top;align=center;html=1;fontSize=12;fontStyle=0;aspect=fixed;pointerEvents=1;shape=mxgraph.aws4.instance2;" parent="RZCS8msr2GIvvRPchReN-154" vertex="1">
          <mxGeometry x="73.46000000000004" y="41" width="48" height="48" as="geometry" />
        </mxCell>
        <mxCell id="6GPPdsSxO4ECFvlowUeQ-37" value="&lt;div style=&quot;text-align: center;&quot;&gt;mgt&lt;span style=&quot;background-color: initial;&quot;&gt;-1&lt;/span&gt;&lt;/div&gt;" style="text;whiteSpace=wrap;html=1;" vertex="1" parent="RZCS8msr2GIvvRPchReN-154">
          <mxGeometry x="79.50000000000003" y="89" width="35.92" height="27" as="geometry" />
        </mxCell>
        <mxCell id="RZCS8msr2GIvvRPchReN-167" value="" style="sketch=0;outlineConnect=0;fontColor=#232F3E;gradientColor=none;fillColor=#4D27AA;strokeColor=none;dashed=0;verticalLabelPosition=bottom;verticalAlign=top;align=center;html=1;fontSize=12;fontStyle=0;aspect=fixed;pointerEvents=1;shape=mxgraph.aws4.application_load_balancer;" parent="RZCS8msr2GIvvRPchReN-150" vertex="1">
          <mxGeometry x="231" y="161" width="27" height="27" as="geometry" />
        </mxCell>
        <mxCell id="RZCS8msr2GIvvRPchReN-178" value="Availability Zone" style="fillColor=none;strokeColor=#147EBA;dashed=1;verticalAlign=top;fontStyle=0;fontColor=#147EBA;whiteSpace=wrap;html=1;" parent="RZCS8msr2GIvvRPchReN-150" vertex="1">
          <mxGeometry x="295" y="-30" width="207.5" height="675" as="geometry" />
        </mxCell>
        <mxCell id="RZCS8msr2GIvvRPchReN-187" value="Public subnet" style="points=[[0,0],[0.25,0],[0.5,0],[0.75,0],[1,0],[1,0.25],[1,0.5],[1,0.75],[1,1],[0.75,1],[0.5,1],[0.25,1],[0,1],[0,0.75],[0,0.5],[0,0.25]];outlineConnect=0;gradientColor=none;html=1;whiteSpace=wrap;fontSize=12;fontStyle=0;container=1;pointerEvents=0;collapsible=0;recursiveResize=0;shape=mxgraph.aws4.group;grIcon=mxgraph.aws4.group_security_group;grStroke=0;strokeColor=#248814;fillColor=#E9F3E6;verticalAlign=top;align=left;spacingLeft=30;fontColor=#248814;dashed=0;" parent="RZCS8msr2GIvvRPchReN-150" vertex="1">
          <mxGeometry x="301.28" y="58" width="194.93" height="130" as="geometry" />
        </mxCell>
        <mxCell id="RZCS8msr2GIvvRPchReN-188" value="" style="sketch=0;outlineConnect=0;fontColor=#232F3E;gradientColor=none;fillColor=#4D27AA;strokeColor=none;dashed=0;verticalLabelPosition=bottom;verticalAlign=top;align=center;html=1;fontSize=12;fontStyle=0;aspect=fixed;pointerEvents=1;shape=mxgraph.aws4.nat_gateway;" parent="RZCS8msr2GIvvRPchReN-187" vertex="1">
          <mxGeometry x="76.38999999999999" y="45.5" width="42" height="42" as="geometry" />
        </mxCell>
        <mxCell id="6GPPdsSxO4ECFvlowUeQ-92" value="&lt;div style=&quot;text-align: center;&quot;&gt;&lt;font color=&quot;#232f3e&quot;&gt;Nat Gateway&lt;/font&gt;&lt;/div&gt;" style="text;whiteSpace=wrap;html=1;" vertex="1" parent="RZCS8msr2GIvvRPchReN-187">
          <mxGeometry x="67.3900000000001" y="85" width="60" height="37" as="geometry" />
        </mxCell>
        <mxCell id="RZCS8msr2GIvvRPchReN-189" value="Private subnet" style="points=[[0,0],[0.25,0],[0.5,0],[0.75,0],[1,0],[1,0.25],[1,0.5],[1,0.75],[1,1],[0.75,1],[0.5,1],[0.25,1],[0,1],[0,0.75],[0,0.5],[0,0.25]];outlineConnect=0;gradientColor=none;html=1;whiteSpace=wrap;fontSize=12;fontStyle=0;container=1;pointerEvents=0;collapsible=0;recursiveResize=0;shape=mxgraph.aws4.group;grIcon=mxgraph.aws4.group_security_group;grStroke=0;strokeColor=#147EBA;fillColor=#E6F2F8;verticalAlign=top;align=left;spacingLeft=30;fontColor=#147EBA;dashed=0;" parent="RZCS8msr2GIvvRPchReN-150" vertex="1">
          <mxGeometry x="302.74" y="203" width="192" height="130" as="geometry" />
        </mxCell>
        <mxCell id="RZCS8msr2GIvvRPchReN-190" value="" style="sketch=0;outlineConnect=0;fontColor=#232F3E;gradientColor=none;fillColor=#D45B07;strokeColor=none;dashed=0;verticalLabelPosition=bottom;verticalAlign=top;align=center;html=1;fontSize=12;fontStyle=0;aspect=fixed;pointerEvents=1;shape=mxgraph.aws4.instance2;" parent="RZCS8msr2GIvvRPchReN-189" vertex="1">
          <mxGeometry x="72.27999999999997" y="45" width="48" height="48" as="geometry" />
        </mxCell>
        <mxCell id="6GPPdsSxO4ECFvlowUeQ-5" value="&lt;div style=&quot;text-align: center;&quot;&gt;web-2&lt;br&gt;&lt;/div&gt;" style="text;whiteSpace=wrap;html=1;" vertex="1" parent="RZCS8msr2GIvvRPchReN-189">
          <mxGeometry x="79.72000000000003" y="91" width="35.5" height="27" as="geometry" />
        </mxCell>
        <mxCell id="RZCS8msr2GIvvRPchReN-191" value="Private subnet" style="points=[[0,0],[0.25,0],[0.5,0],[0.75,0],[1,0],[1,0.25],[1,0.5],[1,0.75],[1,1],[0.75,1],[0.5,1],[0.25,1],[0,1],[0,0.75],[0,0.5],[0,0.25]];outlineConnect=0;gradientColor=none;html=1;whiteSpace=wrap;fontSize=12;fontStyle=0;container=1;pointerEvents=0;collapsible=0;recursiveResize=0;shape=mxgraph.aws4.group;grIcon=mxgraph.aws4.group_security_group;grStroke=0;strokeColor=#147EBA;fillColor=#E6F2F8;verticalAlign=top;align=left;spacingLeft=30;fontColor=#147EBA;dashed=0;" parent="RZCS8msr2GIvvRPchReN-150" vertex="1">
          <mxGeometry x="301.28" y="343" width="192" height="130" as="geometry" />
        </mxCell>
        <mxCell id="RZCS8msr2GIvvRPchReN-192" value="" style="sketch=0;outlineConnect=0;fontColor=#232F3E;gradientColor=none;fillColor=#D45B07;strokeColor=none;dashed=0;verticalLabelPosition=bottom;verticalAlign=top;align=center;html=1;fontSize=12;fontStyle=0;aspect=fixed;pointerEvents=1;shape=mxgraph.aws4.instance2;" parent="RZCS8msr2GIvvRPchReN-191" vertex="1">
          <mxGeometry x="73.46000000000004" y="47" width="48" height="48" as="geometry" />
        </mxCell>
        <mxCell id="RZCS8msr2GIvvRPchReN-193" value="Private subnet" style="points=[[0,0],[0.25,0],[0.5,0],[0.75,0],[1,0],[1,0.25],[1,0.5],[1,0.75],[1,1],[0.75,1],[0.5,1],[0.25,1],[0,1],[0,0.75],[0,0.5],[0,0.25]];outlineConnect=0;gradientColor=none;html=1;whiteSpace=wrap;fontSize=12;fontStyle=0;container=1;pointerEvents=0;collapsible=0;recursiveResize=0;shape=mxgraph.aws4.group;grIcon=mxgraph.aws4.group_security_group;grStroke=0;strokeColor=#147EBA;fillColor=#E6F2F8;verticalAlign=top;align=left;spacingLeft=30;fontColor=#147EBA;dashed=0;" parent="RZCS8msr2GIvvRPchReN-150" vertex="1">
          <mxGeometry x="304.21000000000004" y="483" width="192" height="130" as="geometry" />
        </mxCell>
        <mxCell id="RZCS8msr2GIvvRPchReN-194" value="" style="sketch=0;outlineConnect=0;fontColor=#232F3E;gradientColor=none;fillColor=#D45B07;strokeColor=none;dashed=0;verticalLabelPosition=bottom;verticalAlign=top;align=center;html=1;fontSize=12;fontStyle=0;aspect=fixed;pointerEvents=1;shape=mxgraph.aws4.instance2;" parent="RZCS8msr2GIvvRPchReN-193" vertex="1">
          <mxGeometry x="73.46000000000004" y="41" width="48" height="48" as="geometry" />
        </mxCell>
        <mxCell id="6GPPdsSxO4ECFvlowUeQ-38" value="&lt;div style=&quot;text-align: center;&quot;&gt;mgt&lt;span style=&quot;background-color: initial;&quot;&gt;-2&lt;/span&gt;&lt;/div&gt;" style="text;whiteSpace=wrap;html=1;" vertex="1" parent="RZCS8msr2GIvvRPchReN-193">
          <mxGeometry x="81.03999999999996" y="90" width="35.92" height="27" as="geometry" />
        </mxCell>
        <mxCell id="6GPPdsSxO4ECFvlowUeQ-1" value="&lt;div style=&quot;text-align: center;&quot;&gt;2a&lt;/div&gt;" style="text;whiteSpace=wrap;html=1;" vertex="1" parent="RZCS8msr2GIvvRPchReN-150">
          <mxGeometry x="164.5" y="-30" width="20" height="27" as="geometry" />
        </mxCell>
        <mxCell id="6GPPdsSxO4ECFvlowUeQ-3" value="&lt;div style=&quot;text-align: center;&quot;&gt;gyumin-test-iot-iotvpc&lt;br&gt;&lt;/div&gt;" style="text;whiteSpace=wrap;html=1;" vertex="1" parent="RZCS8msr2GIvvRPchReN-150">
          <mxGeometry x="64.5" width="125.5" height="27" as="geometry" />
        </mxCell>
        <mxCell id="6GPPdsSxO4ECFvlowUeQ-74" style="edgeStyle=orthogonalEdgeStyle;rounded=0;orthogonalLoop=1;jettySize=auto;html=1;exitX=1;exitY=0.5;exitDx=0;exitDy=0;entryX=1;entryY=0.5;entryDx=0;entryDy=0;" edge="1" parent="RZCS8msr2GIvvRPchReN-150" source="6GPPdsSxO4ECFvlowUeQ-7" target="6GPPdsSxO4ECFvlowUeQ-54">
          <mxGeometry relative="1" as="geometry" />
        </mxCell>
        <mxCell id="6GPPdsSxO4ECFvlowUeQ-7" value="Security group" style="fillColor=none;strokeColor=#DD3522;verticalAlign=top;fontStyle=0;fontColor=#DD3522;whiteSpace=wrap;html=1;" vertex="1" parent="RZCS8msr2GIvvRPchReN-150">
          <mxGeometry x="64.5" y="235" width="380" height="80" as="geometry" />
        </mxCell>
        <mxCell id="6GPPdsSxO4ECFvlowUeQ-36" value="&lt;div style=&quot;text-align: center;&quot;&gt;was-2&lt;/div&gt;" style="text;whiteSpace=wrap;html=1;" vertex="1" parent="RZCS8msr2GIvvRPchReN-150">
          <mxGeometry x="382.25" y="440" width="35.92" height="27" as="geometry" />
        </mxCell>
        <mxCell id="6GPPdsSxO4ECFvlowUeQ-79" style="edgeStyle=orthogonalEdgeStyle;rounded=0;orthogonalLoop=1;jettySize=auto;html=1;exitX=0.25;exitY=1;exitDx=0;exitDy=0;" edge="1" parent="RZCS8msr2GIvvRPchReN-150" source="6GPPdsSxO4ECFvlowUeQ-39" target="6GPPdsSxO4ECFvlowUeQ-50">
          <mxGeometry relative="1" as="geometry">
            <Array as="points">
              <mxPoint x="159" y="480" />
            </Array>
          </mxGeometry>
        </mxCell>
        <mxCell id="6GPPdsSxO4ECFvlowUeQ-39" value="Security group" style="fillColor=none;strokeColor=#DD3522;verticalAlign=top;fontStyle=0;fontColor=#DD3522;whiteSpace=wrap;html=1;" vertex="1" parent="RZCS8msr2GIvvRPchReN-150">
          <mxGeometry x="64.50000000000003" y="380" width="380" height="80" as="geometry" />
        </mxCell>
        <mxCell id="6GPPdsSxO4ECFvlowUeQ-40" value="Security group" style="fillColor=none;strokeColor=#DD3522;verticalAlign=top;fontStyle=0;fontColor=#DD3522;whiteSpace=wrap;html=1;" vertex="1" parent="RZCS8msr2GIvvRPchReN-150">
          <mxGeometry x="67.25000000000003" y="519.5" width="380" height="80" as="geometry" />
        </mxCell>
        <mxCell id="6GPPdsSxO4ECFvlowUeQ-2" value="&lt;div style=&quot;text-align: center;&quot;&gt;2b&lt;/div&gt;" style="text;whiteSpace=wrap;html=1;" vertex="1" parent="RZCS8msr2GIvvRPchReN-150">
          <mxGeometry x="444.5" y="-30" width="20" height="27" as="geometry" />
        </mxCell>
        <mxCell id="6GPPdsSxO4ECFvlowUeQ-50" value="" style="sketch=0;outlineConnect=0;fontColor=#232F3E;gradientColor=none;fillColor=#4D27AA;strokeColor=none;dashed=0;verticalLabelPosition=bottom;verticalAlign=top;align=center;html=1;fontSize=12;fontStyle=0;aspect=fixed;pointerEvents=1;shape=mxgraph.aws4.network_load_balancer;" vertex="1" parent="RZCS8msr2GIvvRPchReN-150">
          <mxGeometry x="229.75" y="467" width="25" height="25" as="geometry" />
        </mxCell>
        <mxCell id="6GPPdsSxO4ECFvlowUeQ-51" value="" style="sketch=0;outlineConnect=0;fontColor=#232F3E;gradientColor=none;fillColor=#4D27AA;strokeColor=none;dashed=0;verticalLabelPosition=bottom;verticalAlign=top;align=center;html=1;fontSize=12;fontStyle=0;aspect=fixed;pointerEvents=1;shape=mxgraph.aws4.application_load_balancer;" vertex="1" parent="RZCS8msr2GIvvRPchReN-150">
          <mxGeometry x="228.75" y="323" width="29" height="29" as="geometry" />
        </mxCell>
        <mxCell id="6GPPdsSxO4ECFvlowUeQ-71" style="edgeStyle=orthogonalEdgeStyle;rounded=0;orthogonalLoop=1;jettySize=auto;html=1;exitX=0.25;exitY=1;exitDx=0;exitDy=0;entryX=0.527;entryY=0.038;entryDx=0;entryDy=0;entryPerimeter=0;" edge="1" parent="RZCS8msr2GIvvRPchReN-150" source="6GPPdsSxO4ECFvlowUeQ-52" target="6GPPdsSxO4ECFvlowUeQ-7">
          <mxGeometry relative="1" as="geometry" />
        </mxCell>
        <mxCell id="6GPPdsSxO4ECFvlowUeQ-52" value="&lt;div style=&quot;text-align: center;&quot;&gt;&lt;font color=&quot;#232f3e&quot;&gt;ALB&lt;/font&gt;&lt;/div&gt;" style="text;whiteSpace=wrap;html=1;" vertex="1" parent="RZCS8msr2GIvvRPchReN-150">
          <mxGeometry x="257.38" y="161" width="28.25" height="27" as="geometry" />
        </mxCell>
        <mxCell id="6GPPdsSxO4ECFvlowUeQ-72" style="edgeStyle=orthogonalEdgeStyle;rounded=0;orthogonalLoop=1;jettySize=auto;html=1;exitX=0.25;exitY=1;exitDx=0;exitDy=0;entryX=0.532;entryY=0;entryDx=0;entryDy=0;entryPerimeter=0;" edge="1" parent="RZCS8msr2GIvvRPchReN-150" source="6GPPdsSxO4ECFvlowUeQ-53" target="6GPPdsSxO4ECFvlowUeQ-39">
          <mxGeometry relative="1" as="geometry" />
        </mxCell>
        <mxCell id="6GPPdsSxO4ECFvlowUeQ-53" value="&lt;div style=&quot;text-align: center;&quot;&gt;&lt;font color=&quot;#232f3e&quot;&gt;ALB&lt;/font&gt;&lt;/div&gt;" style="text;whiteSpace=wrap;html=1;" vertex="1" parent="RZCS8msr2GIvvRPchReN-150">
          <mxGeometry x="258.75" y="325" width="28.25" height="27" as="geometry" />
        </mxCell>
        <mxCell id="6GPPdsSxO4ECFvlowUeQ-61" style="edgeStyle=orthogonalEdgeStyle;rounded=0;orthogonalLoop=1;jettySize=auto;html=1;exitX=0;exitY=1;exitDx=0;exitDy=0;entryX=0.5;entryY=0;entryDx=0;entryDy=0;" edge="1" parent="RZCS8msr2GIvvRPchReN-150" source="6GPPdsSxO4ECFvlowUeQ-54" target="6GPPdsSxO4ECFvlowUeQ-40">
          <mxGeometry relative="1" as="geometry" />
        </mxCell>
        <mxCell id="6GPPdsSxO4ECFvlowUeQ-54" value="&lt;div style=&quot;text-align: center;&quot;&gt;&lt;font color=&quot;#232f3e&quot;&gt;NLB&lt;/font&gt;&lt;/div&gt;" style="text;whiteSpace=wrap;html=1;" vertex="1" parent="RZCS8msr2GIvvRPchReN-150">
          <mxGeometry x="256.75" y="467" width="28.25" height="27" as="geometry" />
        </mxCell>
        <mxCell id="6GPPdsSxO4ECFvlowUeQ-91" value="&lt;div style=&quot;text-align: center;&quot;&gt;&lt;font color=&quot;#232f3e&quot;&gt;Nat Gateway&lt;/font&gt;&lt;/div&gt;" style="text;whiteSpace=wrap;html=1;" vertex="1" parent="RZCS8msr2GIvvRPchReN-150">
          <mxGeometry x="86.25000000000003" y="140" width="60" height="37" as="geometry" />
        </mxCell>
        <mxCell id="6GPPdsSxO4ECFvlowUeQ-68" style="edgeStyle=orthogonalEdgeStyle;rounded=0;orthogonalLoop=1;jettySize=auto;html=1;entryX=0;entryY=0;entryDx=0;entryDy=0;" edge="1" parent="RZCS8msr2GIvvRPchReN-144" source="6GPPdsSxO4ECFvlowUeQ-66" target="6GPPdsSxO4ECFvlowUeQ-52">
          <mxGeometry relative="1" as="geometry" />
        </mxCell>
        <mxCell id="6GPPdsSxO4ECFvlowUeQ-66" value="" style="sketch=0;outlineConnect=0;fontColor=#232F3E;gradientColor=none;fillColor=#4D27AA;strokeColor=none;dashed=0;verticalLabelPosition=bottom;verticalAlign=top;align=center;html=1;fontSize=12;fontStyle=0;aspect=fixed;pointerEvents=1;shape=mxgraph.aws4.internet_gateway;" vertex="1" parent="RZCS8msr2GIvvRPchReN-144">
          <mxGeometry x="330.97" y="91" width="35" height="35" as="geometry" />
        </mxCell>
        <mxCell id="6GPPdsSxO4ECFvlowUeQ-67" value="&lt;div style=&quot;text-align: center;&quot;&gt;&lt;font color=&quot;#232f3e&quot;&gt;Internet Gateway&lt;/font&gt;&lt;/div&gt;" style="text;whiteSpace=wrap;html=1;" vertex="1" parent="RZCS8msr2GIvvRPchReN-144">
          <mxGeometry x="318.47" y="54" width="60" height="37" as="geometry" />
        </mxCell>
        <mxCell id="6GPPdsSxO4ECFvlowUeQ-87" value="" style="sketch=0;outlineConnect=0;fontColor=#232F3E;gradientColor=none;fillColor=#3F8624;strokeColor=none;dashed=0;verticalLabelPosition=bottom;verticalAlign=top;align=center;html=1;fontSize=12;fontStyle=0;aspect=fixed;pointerEvents=1;shape=mxgraph.aws4.rule;" vertex="1" parent="RZCS8msr2GIvvRPchReN-144">
          <mxGeometry x="636.34" y="120" width="28.31" height="48" as="geometry" />
        </mxCell>
        <mxCell id="6GPPdsSxO4ECFvlowUeQ-90" style="edgeStyle=orthogonalEdgeStyle;rounded=0;orthogonalLoop=1;jettySize=auto;html=1;exitX=0.5;exitY=1;exitDx=0;exitDy=0;" edge="1" parent="RZCS8msr2GIvvRPchReN-144" source="6GPPdsSxO4ECFvlowUeQ-89" target="6GPPdsSxO4ECFvlowUeQ-25">
          <mxGeometry relative="1" as="geometry" />
        </mxCell>
        <mxCell id="6GPPdsSxO4ECFvlowUeQ-89" value="&lt;div style=&quot;text-align: center;&quot;&gt;&lt;font color=&quot;#232f3e&quot;&gt;rule Config&lt;/font&gt;&lt;/div&gt;" style="text;whiteSpace=wrap;html=1;" vertex="1" parent="RZCS8msr2GIvvRPchReN-144">
          <mxGeometry x="627.61" y="168" width="45.63" height="38" as="geometry" />
        </mxCell>
        <mxCell id="-QjtrjUzRDEMRZ5MF8oH-28" value="3" style="rounded=1;whiteSpace=wrap;html=1;fillColor=#007CBD;strokeColor=none;fontColor=#FFFFFF;fontStyle=1;fontSize=22;" parent="RZCS8msr2GIvvRPchReN-144" vertex="1">
          <mxGeometry x="587.61" y="26" width="40" height="38" as="geometry" />
        </mxCell>
        <mxCell id="6GPPdsSxO4ECFvlowUeQ-100" value="4" style="rounded=1;whiteSpace=wrap;html=1;fillColor=#007CBD;strokeColor=none;fontColor=#FFFFFF;fontStyle=1;fontSize=22;labelBackgroundColor=none;" vertex="1" parent="RZCS8msr2GIvvRPchReN-144">
          <mxGeometry x="30" y="480" width="40" height="38" as="geometry" />
        </mxCell>
        <mxCell id="RZCS8msr2GIvvRPchReN-165" value="" style="sketch=0;outlineConnect=0;fontColor=#232F3E;gradientColor=none;fillColor=#4D27AA;strokeColor=none;dashed=0;verticalLabelPosition=bottom;verticalAlign=top;align=center;html=1;fontSize=12;fontStyle=0;aspect=fixed;pointerEvents=1;shape=mxgraph.aws4.route_table;" parent="RZCS8msr2GIvvRPchReN-143" vertex="1">
          <mxGeometry x="260" y="28.5" width="44.13" height="43" as="geometry" />
        </mxCell>
        <mxCell id="6GPPdsSxO4ECFvlowUeQ-44" value="" style="endArrow=classic;startArrow=classic;html=1;rounded=0;" edge="1" parent="RZCS8msr2GIvvRPchReN-143" source="6GPPdsSxO4ECFvlowUeQ-95" target="6GPPdsSxO4ECFvlowUeQ-28">
          <mxGeometry width="50" height="50" relative="1" as="geometry">
            <mxPoint x="470" y="90" as="sourcePoint" />
            <mxPoint x="670" y="137" as="targetPoint" />
            <Array as="points">
              <mxPoint x="470" y="97" />
              <mxPoint x="682" y="97" />
            </Array>
          </mxGeometry>
        </mxCell>
        <mxCell id="6GPPdsSxO4ECFvlowUeQ-80" value="" style="sketch=0;points=[[0,0,0],[0.25,0,0],[0.5,0,0],[0.75,0,0],[1,0,0],[0,1,0],[0.25,1,0],[0.5,1,0],[0.75,1,0],[1,1,0],[0,0.25,0],[0,0.5,0],[0,0.75,0],[1,0.25,0],[1,0.5,0],[1,0.75,0]];outlineConnect=0;fontColor=#232F3E;gradientColor=#F54749;gradientDirection=north;fillColor=#C7131F;strokeColor=#ffffff;dashed=0;verticalLabelPosition=bottom;verticalAlign=top;align=center;html=1;fontSize=12;fontStyle=0;aspect=fixed;shape=mxgraph.aws4.resourceIcon;resIcon=mxgraph.aws4.identity_and_access_management;" vertex="1" parent="RZCS8msr2GIvvRPchReN-143">
          <mxGeometry x="760" y="777" width="78" height="78" as="geometry" />
        </mxCell>
        <mxCell id="6GPPdsSxO4ECFvlowUeQ-81" value="AWS Identity and Access Management&lt;br&gt;(IAM)" style="rounded=0;whiteSpace=wrap;html=1;" vertex="1" parent="RZCS8msr2GIvvRPchReN-143">
          <mxGeometry x="850" y="786" width="120" height="60" as="geometry" />
        </mxCell>
        <mxCell id="6GPPdsSxO4ECFvlowUeQ-95" value="" style="sketch=0;outlineConnect=0;fontColor=#232F3E;gradientColor=none;fillColor=#BF0816;strokeColor=none;dashed=0;verticalLabelPosition=bottom;verticalAlign=top;align=center;html=1;fontSize=12;fontStyle=0;aspect=fixed;pointerEvents=1;shape=mxgraph.aws4.permissions;" vertex="1" parent="RZCS8msr2GIvvRPchReN-143">
          <mxGeometry x="445" y="19" width="48.49" height="61" as="geometry" />
        </mxCell>
        <mxCell id="6GPPdsSxO4ECFvlowUeQ-99" value="&lt;div style=&quot;text-align: center;&quot;&gt;&lt;font color=&quot;#232f3e&quot;&gt;Admin Autority Config&lt;/font&gt;&lt;/div&gt;" style="text;whiteSpace=wrap;html=1;" vertex="1" parent="RZCS8msr2GIvvRPchReN-143">
          <mxGeometry x="499.49" y="53" width="120" height="27" as="geometry" />
        </mxCell>
        <mxCell id="RZCS8msr2GIvvRPchReN-168" value="" style="sketch=0;points=[[0,0,0],[0.25,0,0],[0.5,0,0],[0.75,0,0],[1,0,0],[0,1,0],[0.25,1,0],[0.5,1,0],[0.75,1,0],[1,1,0],[0,0.25,0],[0,0.5,0],[0,0.75,0],[1,0.25,0],[1,0.5,0],[1,0.75,0]];outlineConnect=0;fontColor=#232F3E;gradientColor=#945DF2;gradientDirection=north;fillColor=#5A30B5;strokeColor=#ffffff;dashed=0;verticalLabelPosition=bottom;verticalAlign=top;align=center;html=1;fontSize=12;fontStyle=0;aspect=fixed;shape=mxgraph.aws4.resourceIcon;resIcon=mxgraph.aws4.vpc;" parent="RZCS8msr2GIvvRPchReN-143" vertex="1">
          <mxGeometry x="760" y="187" width="78" height="78" as="geometry" />
        </mxCell>
        <mxCell id="RZCS8msr2GIvvRPchReN-169" value="Amazon Virtual Private Cloud (Amazon VPC)" style="rounded=0;whiteSpace=wrap;html=1;" parent="RZCS8msr2GIvvRPchReN-143" vertex="1">
          <mxGeometry x="850" y="189" width="120" height="60" as="geometry" />
        </mxCell>
        <mxCell id="RZCS8msr2GIvvRPchReN-166" value="" style="sketch=0;points=[[0,0,0],[0.25,0,0],[0.5,0,0],[0.75,0,0],[1,0,0],[0,1,0],[0.25,1,0],[0.5,1,0],[0.75,1,0],[1,1,0],[0,0.25,0],[0,0.5,0],[0,0.75,0],[1,0.25,0],[1,0.5,0],[1,0.75,0]];outlineConnect=0;fontColor=#232F3E;gradientColor=#945DF2;gradientDirection=north;fillColor=#5A30B5;strokeColor=#ffffff;dashed=0;verticalLabelPosition=bottom;verticalAlign=top;align=center;html=1;fontSize=12;fontStyle=0;aspect=fixed;shape=mxgraph.aws4.resourceIcon;resIcon=mxgraph.aws4.elastic_load_balancing;" parent="RZCS8msr2GIvvRPchReN-143" vertex="1">
          <mxGeometry x="760" y="285" width="78" height="78" as="geometry" />
        </mxCell>
        <mxCell id="RZCS8msr2GIvvRPchReN-170" value="Elastic Load Balancing" style="rounded=0;whiteSpace=wrap;html=1;" parent="RZCS8msr2GIvvRPchReN-143" vertex="1">
          <mxGeometry x="850" y="294" width="120" height="60" as="geometry" />
        </mxCell>
        <mxCell id="RZCS8msr2GIvvRPchReN-159" value="" style="sketch=0;points=[[0,0,0],[0.25,0,0],[0.5,0,0],[0.75,0,0],[1,0,0],[0,1,0],[0.25,1,0],[0.5,1,0],[0.75,1,0],[1,1,0],[0,0.25,0],[0,0.5,0],[0,0.75,0],[1,0.25,0],[1,0.5,0],[1,0.75,0]];outlineConnect=0;fontColor=#232F3E;gradientColor=#945DF2;gradientDirection=north;fillColor=#5A30B5;strokeColor=#ffffff;dashed=0;verticalLabelPosition=bottom;verticalAlign=top;align=center;html=1;fontSize=12;fontStyle=0;aspect=fixed;shape=mxgraph.aws4.resourceIcon;resIcon=mxgraph.aws4.route_53;" parent="RZCS8msr2GIvvRPchReN-143" vertex="1">
          <mxGeometry x="760" y="388" width="78" height="78" as="geometry" />
        </mxCell>
        <mxCell id="RZCS8msr2GIvvRPchReN-172" value="Amazon Route 53" style="rounded=0;whiteSpace=wrap;html=1;" parent="RZCS8msr2GIvvRPchReN-143" vertex="1">
          <mxGeometry x="850" y="397" width="120" height="60" as="geometry" />
        </mxCell>
        <mxCell id="RZCS8msr2GIvvRPchReN-156" value="" style="sketch=0;points=[[0,0,0],[0.25,0,0],[0.5,0,0],[0.75,0,0],[1,0,0],[0,1,0],[0.25,1,0],[0.5,1,0],[0.75,1,0],[1,1,0],[0,0.25,0],[0,0.5,0],[0,0.75,0],[1,0.25,0],[1,0.5,0],[1,0.75,0]];outlineConnect=0;fontColor=#232F3E;gradientColor=#F78E04;gradientDirection=north;fillColor=#D05C17;strokeColor=#ffffff;dashed=0;verticalLabelPosition=bottom;verticalAlign=top;align=center;html=1;fontSize=12;fontStyle=0;aspect=fixed;shape=mxgraph.aws4.resourceIcon;resIcon=mxgraph.aws4.ec2;" parent="RZCS8msr2GIvvRPchReN-143" vertex="1">
          <mxGeometry x="760" y="488.5" width="80" height="80" as="geometry" />
        </mxCell>
        <mxCell id="RZCS8msr2GIvvRPchReN-174" value="Amazon Elastic Compute Cloud (Amazon EC2)" style="rounded=0;whiteSpace=wrap;html=1;" parent="RZCS8msr2GIvvRPchReN-143" vertex="1">
          <mxGeometry x="850" y="498.5" width="120" height="60" as="geometry" />
        </mxCell>
        <mxCell id="RZCS8msr2GIvvRPchReN-162" value="" style="sketch=0;points=[[0,0,0],[0.25,0,0],[0.5,0,0],[0.75,0,0],[1,0,0],[0,1,0],[0.25,1,0],[0.5,1,0],[0.75,1,0],[1,1,0],[0,0.25,0],[0,0.5,0],[0,0.75,0],[1,0.25,0],[1,0.5,0],[1,0.75,0]];outlineConnect=0;fontColor=#232F3E;gradientColor=#60A337;gradientDirection=north;fillColor=#277116;strokeColor=#ffffff;dashed=0;verticalLabelPosition=bottom;verticalAlign=top;align=center;html=1;fontSize=12;fontStyle=0;aspect=fixed;shape=mxgraph.aws4.resourceIcon;resIcon=mxgraph.aws4.iot_core;" parent="RZCS8msr2GIvvRPchReN-143" vertex="1">
          <mxGeometry x="760" y="588" width="78" height="78" as="geometry" />
        </mxCell>
        <mxCell id="RZCS8msr2GIvvRPchReN-171" value="AWS IoT Core" style="rounded=0;whiteSpace=wrap;html=1;" parent="RZCS8msr2GIvvRPchReN-143" vertex="1">
          <mxGeometry x="850" y="597" width="120" height="60" as="geometry" />
        </mxCell>
        <mxCell id="RZCS8msr2GIvvRPchReN-155" value="" style="sketch=0;points=[[0,0,0],[0.25,0,0],[0.5,0,0],[0.75,0,0],[1,0,0],[0,1,0],[0.25,1,0],[0.5,1,0],[0.75,1,0],[1,1,0],[0,0.25,0],[0,0.5,0],[0,0.75,0],[1,0.25,0],[1,0.5,0],[1,0.75,0]];outlineConnect=0;fontColor=#232F3E;gradientColor=#4D72F3;gradientDirection=north;fillColor=#3334B9;strokeColor=#ffffff;dashed=0;verticalLabelPosition=bottom;verticalAlign=top;align=center;html=1;fontSize=12;fontStyle=0;aspect=fixed;shape=mxgraph.aws4.resourceIcon;resIcon=mxgraph.aws4.dynamodb;" parent="RZCS8msr2GIvvRPchReN-143" vertex="1">
          <mxGeometry x="760" y="685" width="78" height="78" as="geometry" />
        </mxCell>
        <mxCell id="RZCS8msr2GIvvRPchReN-173" value="Amazon DynamoDB" style="rounded=0;whiteSpace=wrap;html=1;" parent="RZCS8msr2GIvvRPchReN-143" vertex="1">
          <mxGeometry x="850" y="694" width="120" height="60" as="geometry" />
        </mxCell>
        <mxCell id="6GPPdsSxO4ECFvlowUeQ-42" style="edgeStyle=orthogonalEdgeStyle;rounded=0;orthogonalLoop=1;jettySize=auto;html=1;" edge="1" parent="1" source="6GPPdsSxO4ECFvlowUeQ-101" target="6GPPdsSxO4ECFvlowUeQ-95">
          <mxGeometry relative="1" as="geometry">
            <mxPoint x="720" y="211" as="sourcePoint" />
            <mxPoint x="581" y="352.5" as="targetPoint" />
          </mxGeometry>
        </mxCell>
        <mxCell id="6GPPdsSxO4ECFvlowUeQ-93" style="edgeStyle=orthogonalEdgeStyle;rounded=0;orthogonalLoop=1;jettySize=auto;html=1;" edge="1" parent="1" source="6GPPdsSxO4ECFvlowUeQ-101" target="6GPPdsSxO4ECFvlowUeQ-28">
          <mxGeometry relative="1" as="geometry">
            <mxPoint x="790" y="271" as="sourcePoint" />
            <mxPoint x="800" y="468" as="targetPoint" />
            <Array as="points">
              <mxPoint x="800" y="470" />
              <mxPoint x="800" y="470" />
            </Array>
          </mxGeometry>
        </mxCell>
        <mxCell id="6GPPdsSxO4ECFvlowUeQ-104" style="edgeStyle=orthogonalEdgeStyle;rounded=0;orthogonalLoop=1;jettySize=auto;html=1;" edge="1" parent="1" source="RZCS8msr2GIvvRPchReN-160" target="6GPPdsSxO4ECFvlowUeQ-101">
          <mxGeometry relative="1" as="geometry" />
        </mxCell>
        <mxCell id="RZCS8msr2GIvvRPchReN-160" value="" style="sketch=0;outlineConnect=0;fontColor=#232F3E;gradientColor=none;fillColor=#3F8624;strokeColor=none;dashed=0;verticalLabelPosition=bottom;verticalAlign=top;align=center;html=1;fontSize=12;fontStyle=0;aspect=fixed;pointerEvents=1;shape=mxgraph.aws4.iot_thing_temperature_humidity_sensor;" parent="1" vertex="1">
          <mxGeometry x="870" y="184" width="60" height="60" as="geometry" />
        </mxCell>
        <mxCell id="6GPPdsSxO4ECFvlowUeQ-110" style="edgeStyle=orthogonalEdgeStyle;rounded=0;orthogonalLoop=1;jettySize=auto;html=1;entryX=0.5;entryY=0;entryDx=0;entryDy=0;" edge="1" parent="1" source="6GPPdsSxO4ECFvlowUeQ-13" target="6GPPdsSxO4ECFvlowUeQ-67">
          <mxGeometry relative="1" as="geometry">
            <Array as="points">
              <mxPoint x="488" y="330" />
              <mxPoint x="488" y="330" />
            </Array>
          </mxGeometry>
        </mxCell>
        <mxCell id="6GPPdsSxO4ECFvlowUeQ-13" value="" style="sketch=0;outlineConnect=0;fontColor=#232F3E;gradientColor=none;fillColor=#232F3D;strokeColor=none;dashed=0;verticalLabelPosition=bottom;verticalAlign=top;align=center;html=1;fontSize=12;fontStyle=0;aspect=fixed;pointerEvents=1;shape=mxgraph.aws4.users;" vertex="1" parent="1">
          <mxGeometry x="443.5" y="212" width="52" height="52" as="geometry" />
        </mxCell>
        <mxCell id="-QjtrjUzRDEMRZ5MF8oH-27" value="2" style="rounded=1;whiteSpace=wrap;html=1;fillColor=#007CBD;strokeColor=none;fontColor=#FFFFFF;fontStyle=1;fontSize=22;" parent="1" vertex="1">
          <mxGeometry x="690" y="279" width="40" height="38" as="geometry" />
        </mxCell>
        <mxCell id="6GPPdsSxO4ECFvlowUeQ-16" value="" style="endArrow=classic;startArrow=classic;html=1;rounded=0;" edge="1" parent="1" source="RZCS8msr2GIvvRPchReN-165" target="6GPPdsSxO4ECFvlowUeQ-13">
          <mxGeometry width="50" height="50" relative="1" as="geometry">
            <mxPoint x="820" y="800" as="sourcePoint" />
            <mxPoint x="870" y="750" as="targetPoint" />
            <Array as="points">
              <mxPoint x="470" y="393" />
            </Array>
          </mxGeometry>
        </mxCell>
        <mxCell id="6GPPdsSxO4ECFvlowUeQ-17" value="&lt;div style=&quot;text-align: center;&quot;&gt;&lt;span style=&quot;background-color: initial;&quot;&gt;&lt;font color=&quot;#232f3e&quot;&gt;Monitoring Admins&lt;/font&gt;&lt;/span&gt;&lt;/div&gt;" style="text;whiteSpace=wrap;html=1;" vertex="1" parent="1">
          <mxGeometry x="420" y="185" width="110" height="27" as="geometry" />
        </mxCell>
        <mxCell id="6GPPdsSxO4ECFvlowUeQ-19" value="" style="sketch=0;outlineConnect=0;fontColor=#232F3E;gradientColor=none;fillColor=#232F3D;strokeColor=none;dashed=0;verticalLabelPosition=bottom;verticalAlign=top;align=center;html=1;fontSize=12;fontStyle=0;aspect=fixed;pointerEvents=1;shape=mxgraph.aws4.user;" vertex="1" parent="1">
          <mxGeometry x="330" y="211" width="48" height="48" as="geometry" />
        </mxCell>
        <mxCell id="6GPPdsSxO4ECFvlowUeQ-111" style="edgeStyle=orthogonalEdgeStyle;rounded=0;orthogonalLoop=1;jettySize=auto;html=1;" edge="1" parent="1" source="6GPPdsSxO4ECFvlowUeQ-85" target="6GPPdsSxO4ECFvlowUeQ-66">
          <mxGeometry relative="1" as="geometry">
            <Array as="points">
              <mxPoint x="360" y="561" />
            </Array>
          </mxGeometry>
        </mxCell>
        <mxCell id="6GPPdsSxO4ECFvlowUeQ-85" value="&lt;div style=&quot;text-align: center;&quot;&gt;&lt;span style=&quot;background-color: initial;&quot;&gt;&lt;font color=&quot;#232f3e&quot;&gt;Admin&lt;/font&gt;&lt;/span&gt;&lt;/div&gt;" style="text;whiteSpace=wrap;html=1;" vertex="1" parent="1">
          <mxGeometry x="334" y="260" width="40" height="27" as="geometry" />
        </mxCell>
        <mxCell id="6GPPdsSxO4ECFvlowUeQ-49" value="&lt;div style=&quot;text-align: center;&quot;&gt;&lt;font color=&quot;#232f3e&quot;&gt;AWS SDK&lt;/font&gt;&lt;/div&gt;" style="text;whiteSpace=wrap;html=1;" vertex="1" parent="1">
          <mxGeometry x="640" y="211" width="60" height="27" as="geometry" />
        </mxCell>
        <mxCell id="6GPPdsSxO4ECFvlowUeQ-94" value="&lt;div style=&quot;text-align: center;&quot;&gt;&lt;font color=&quot;#232f3e&quot;&gt;MQTT Protocol&lt;/font&gt;&lt;/div&gt;" style="text;whiteSpace=wrap;html=1;" vertex="1" parent="1">
          <mxGeometry x="720" y="279" width="80" height="37" as="geometry" />
        </mxCell>
        <mxCell id="6GPPdsSxO4ECFvlowUeQ-96" value="AWS 와 연결하기 위해 IAM 서비스와 라즈베리파이 연결" style="text;html=1;align=left;verticalAlign=top;spacingTop=-4;fontSize=14;labelBackgroundColor=none;whiteSpace=wrap;" vertex="1" parent="1">
          <mxGeometry x="1220.5" y="169.5" width="449" height="42.5" as="geometry" />
        </mxCell>
        <mxCell id="6GPPdsSxO4ECFvlowUeQ-97" value="IAM에서 관리 권한 설정을 통해 라즈베리파이에서 IoT Core로 MQTT 프로토콜을 통한 데이터 전송" style="text;html=1;align=left;verticalAlign=top;spacingTop=-4;fontSize=14;labelBackgroundColor=none;whiteSpace=wrap;" vertex="1" parent="1">
          <mxGeometry x="1220.5" y="222" width="449" height="48" as="geometry" />
        </mxCell>
        <mxCell id="6GPPdsSxO4ECFvlowUeQ-98" value="IoT Core에서 사물 생성을 통해 현재 게시 되고 있는 데이터들을 구독 후 역할 설정을 통해 DynamoDB Service에 데이터 전송" style="text;html=1;align=left;verticalAlign=top;spacingTop=-4;fontSize=14;labelBackgroundColor=none;whiteSpace=wrap;" vertex="1" parent="1">
          <mxGeometry x="1221.5" y="279" width="449" height="41" as="geometry" />
        </mxCell>
        <mxCell id="6GPPdsSxO4ECFvlowUeQ-101" value="" style="sketch=0;outlineConnect=0;fontColor=#232F3E;gradientColor=none;fillColor=#3F8624;strokeColor=none;dashed=0;verticalLabelPosition=bottom;verticalAlign=top;align=center;html=1;fontSize=12;fontStyle=0;aspect=fixed;pointerEvents=1;shape=mxgraph.aws4.iot_thing_plc;" vertex="1" parent="1">
          <mxGeometry x="760" y="184" width="60" height="60" as="geometry" />
        </mxCell>
        <mxCell id="6GPPdsSxO4ECFvlowUeQ-102" value="&lt;div style=&quot;text-align: center;&quot;&gt;&lt;font color=&quot;#232f3e&quot;&gt;Raspberry pi PLC&lt;/font&gt;&lt;/div&gt;" style="text;whiteSpace=wrap;html=1;" vertex="1" parent="1">
          <mxGeometry x="750" y="162" width="101.25" height="27" as="geometry" />
        </mxCell>
        <mxCell id="6GPPdsSxO4ECFvlowUeQ-105" value="IoT Core에서 사물 생성을 통해 현재 게시 되고 있는 데이터들을 구독 후 역할 설정을 통해 DynamoDB Service에 데이터 전송" style="text;html=1;align=left;verticalAlign=top;spacingTop=-4;fontSize=14;labelBackgroundColor=none;whiteSpace=wrap;" vertex="1" parent="1">
          <mxGeometry x="1221.5" y="340" width="449" height="118" as="geometry" />
        </mxCell>
        <mxCell id="6GPPdsSxO4ECFvlowUeQ-107" value="10" style="rounded=1;whiteSpace=wrap;html=1;fillColor=#007CBD;strokeColor=none;fontColor=#FFFFFF;fontStyle=1;fontSize=22;labelBackgroundColor=none;" vertex="1" parent="1">
          <mxGeometry x="41.5" y="169.5" width="40" height="38" as="geometry" />
        </mxCell>
      </root>
    </mxGraphModel>
  </diagram>
</mxfile>
